<svg width="74" height="74" viewBox="0 0 74 74" fill="none" xmlns="http://www.w3.org/2000/svg">
    <path d="M55.5 37C55.5 39.8002 54.8644 42.5638 53.641 45.0826C52.4176 47.6013 50.6384 49.8095 48.4375 51.5407C46.2367 53.2719 43.6715 54.4809 40.9355 55.0766C38.1994 55.6722 35.3638 55.639 32.6424 54.9795C29.9211 54.3199 27.3849 53.0512 25.2252 51.269C23.0654 49.4867 21.3384 47.2375 20.1744 44.6908C19.0103 42.144 18.4395 39.3663 18.5051 36.5669C18.5706 33.7675 19.2708 31.0195 20.5528 28.5301L25.2407 30.9442C24.3241 32.7241 23.8235 34.6889 23.7767 36.6903C23.7298 38.6918 24.1379 40.6778 24.9701 42.4987C25.8024 44.3195 27.0372 45.9277 28.5813 47.2019C30.1255 48.4762 31.9388 49.3832 33.8845 49.8548C35.8302 50.3264 37.8575 50.3501 39.8137 49.9242C41.7699 49.4983 43.604 48.6339 45.1775 47.3962C46.7511 46.1585 48.0232 44.5796 48.8978 42.7788C49.7725 40.9779 50.227 39.002 50.227 37H55.5Z" fill="#fcfcfc"/>
    </svg>
    